<svg width="32" height="32" viewBox="0 0 32 32" fill="none" xmlns="http://www.w3.org/2000/svg">
<rect width="32" height="32" fill="black"/>
<path d="M26.7794 12.6142L26.388 13.0346L25.3882 12.5686L25.3315 12.8892C25.9393 13.3754 26.4819 13.9379 26.9459 14.5628H27.5136L27.3903 15.2618C27.8952 16.1859 28.0968 17.1463 27.9303 18.09C27.296 21.6875 21.5539 23.6823 15.1048 22.545C13.839 22.3246 12.5968 21.9857 11.3945 21.5328H9.44407C11.2278 22.2814 13.0907 22.8255 14.9969 23.1546C22.6327 24.5016 29.3845 22.4032 30.0786 18.4691C30.4324 16.4626 29.1422 14.3661 26.7794 12.6142ZM17.5095 8.90761C9.87373 7.56132 3.12192 9.65905 2.42782 13.5937C2.27679 14.4518 2.42596 15.3265 2.83158 16.1834L2.94008 16.0811L3.6385 15.4239L4.29808 15.7864L4.45589 14.932L4.53048 14.9222C4.50562 14.6049 4.52095 14.2857 4.5761 13.9722C4.79494 12.732 5.62033 11.6828 6.87293 10.8864L6.93581 10.5301H7.4943C9.90393 9.28179 13.5249 8.83426 17.4016 9.51727C18.668 9.73788 19.9109 10.077 21.1138 10.5301H23.0636C21.2795 9.78094 19.4163 9.23664 17.5095 8.90761Z" fill="white"/>
<path d="M6.34766 15.8759L7.22876 10.8789H11.438L10.9124 13.8597H8.43576L8.6058 12.8953H9.35097L9.53648 11.8433H8.7901L8.07903 15.8759H6.34766Z" fill="white"/>
<path d="M11.9368 10.8789H13.6682L12.7871 15.8759H11.0557L11.9368 10.8789Z" fill="white"/>
<path d="M14.4066 12.8954H13.8149L14.1704 10.8789H15.9019L15.5463 12.8954H16.2915L16.6471 10.8789H18.3785L18.023 12.8954H17.4312L17.3462 13.3774H17.9367L17.4961 15.8759H15.7647L16.1125 13.9036H15.3672L15.0194 15.8759H13.2881L13.7286 13.3774H14.3216L14.4066 12.8954Z" fill="white"/>
<path d="M19.9043 14.9118H22.3817L22.2117 15.8762H18.0035L18.0036 15.8759H18.0029L18.884 10.8789H23.0928L22.9228 11.8433H20.4453L20.2599 12.8952H22.7377L22.5677 13.8596H20.0898L19.9043 14.9118Z" fill="white"/>
<path d="M22.7186 15.8759H22.7178L23.5989 10.8789H25.3302L24.6191 14.9117H27.0968L26.9267 15.8762H22.7186L22.7186 15.8759Z" fill="white"/>
<path d="M10.0577 18.684L9.61835 21.1828H5.41026L5.41029 21.1825H5.40918L6.29028 16.1855H10.4995L10.1439 18.202H9.55092L9.46592 18.684H10.0577ZM7.85162 17.1499L7.66612 18.202H8.41125L8.598 17.1499H7.85162ZM7.31057 20.2184H8.0557L8.2412 19.1664H7.49607L7.31057 20.2184Z" fill="white"/>
<path d="M12.0254 20.2184H14.5028L14.3327 21.1828H10.1246L10.1247 21.1825H10.124L11.0051 16.1855H15.2139L15.0438 17.1499H12.5664L12.381 18.2019H14.8588L14.6888 19.1662H12.2109L12.0254 20.2184Z" fill="white"/>
<path d="M17.3154 21.1825L17.6709 19.1664H16.9258L16.5702 21.1825H14.8389L15.72 16.1855H19.9294L19.0468 21.1825H17.3154ZM18.0264 17.1499H17.2813L17.0958 18.202H17.8409L18.0264 17.1499Z" fill="white"/>
<path d="M22.5346 21.1828H20.8031L21.5142 17.1499L20.2656 17.1499L20.4357 16.1855H24.6438L24.4737 17.1499L23.2457 17.1499L22.5346 21.1828Z" fill="white"/>
<path d="M5.23859 16.7011L3.69296 15.8525L3.17915 16.3358L1.9248 17.5145L2.95949 19.7098L5.36661 19.4042L5.82006 17.0203L5.23859 16.7011ZM4.10848 19.0855C3.72634 19.1336 3.36842 19.2508 3.1166 19.4062C3.09221 19.0893 3.01373 18.7789 2.88456 18.4885C2.73356 18.1505 2.52037 17.8439 2.25608 17.5846C2.60186 17.478 2.91605 17.2879 3.17088 17.031C3.2521 16.9464 3.32847 16.8572 3.39959 16.7639C3.53373 16.5917 3.64624 16.4036 3.73459 16.204C3.92653 16.4701 4.16879 16.6961 4.44768 16.8691C4.78231 17.0772 5.19725 17.1438 5.47077 17.1647L5.51996 17.1681C5.51169 17.1805 5.50335 17.1935 5.49438 17.2071C5.35496 17.4254 5.15134 17.7937 5.09055 18.1695C5.05363 18.4078 5.05193 18.6503 5.08552 18.8891C5.09894 18.9889 5.11676 19.0791 5.13485 19.1564C4.80049 19.0668 4.45198 19.0427 4.10848 19.0855Z" fill="white"/>
<path d="M5.6393 15.1279L4.82917 15.2346L4.75369 15.2448L4.5918 16.1227L5.11633 16.4077L5.37654 16.5488L6.02372 15.9339L5.6393 15.1279ZM5.509 16.0667C5.46199 16.1144 5.42056 16.1673 5.38554 16.2244L5.34233 16.2949L5.28 16.2405C5.22607 16.1933 5.1672 16.1522 5.10442 16.1177C5.06986 16.0992 5.03518 16.0825 5.00037 16.0678C4.9649 16.0536 4.92931 16.0412 4.8942 16.0307L4.81907 16.0094L4.84884 15.9367C4.87351 15.878 4.89245 15.817 4.90541 15.7547C4.90732 15.7449 4.90923 15.7351 4.91053 15.7254C4.9231 15.6562 4.92861 15.586 4.92698 15.5158L4.92528 15.4341L5.00605 15.4453C5.02319 15.4477 5.04098 15.4496 5.05882 15.4508C5.11979 15.4554 5.1811 15.4519 5.24119 15.4407C5.30654 15.4287 5.37067 15.4109 5.43277 15.3873L5.5108 15.3581L5.5261 15.4401C5.5376 15.5034 5.55565 15.5654 5.57995 15.6249C5.61258 15.6985 5.6569 15.7663 5.71118 15.8256L5.7658 15.8931L5.68094 15.9403C5.61818 15.9745 5.56034 16.017 5.509 16.0667Z" fill="white"/>
<path d="M26.4923 11.0801L25.5568 11.2624L25.4414 12.2085L25.4457 12.2104L26.3056 12.6109L26.5841 12.3119L26.9553 11.9133L26.4923 11.0801ZM26.4724 12.1423C26.4525 12.165 26.4339 12.1887 26.4166 12.2134C26.3589 12.2953 26.313 12.385 26.2803 12.4797C26.188 12.3801 26.0774 12.2992 25.9544 12.2414C25.8304 12.1812 25.6953 12.147 25.5576 12.1408C25.6135 12.0344 25.6513 11.9195 25.6695 11.8007C25.6706 11.7962 25.6714 11.7917 25.6719 11.7871C25.6923 11.6431 25.6856 11.4966 25.6521 11.355C25.7895 11.3919 25.9339 11.3944 26.0726 11.3624C26.2007 11.3312 26.3224 11.2781 26.4325 11.2055C26.4409 11.3341 26.4744 11.4597 26.5309 11.5755C26.6017 11.7051 26.7024 11.8161 26.8245 11.8991C26.6924 11.9564 26.5728 12.0391 26.4724 12.1423Z" fill="white"/>
</svg>
